<svg width="545" height="398" viewBox="0 0 545 398" fill="none" xmlns="http://www.w3.org/2000/svg">
<rect width="545" height="398" fill="black"/>
<path d="M137.12 175.176H163.616V180.36H142.496V196.04H161.568V201.16H142.496V221H137.12V175.176ZM183.135 222.024C179.935 222.024 177.055 221.256 174.495 219.72C171.935 218.184 169.929 216.093 168.479 213.448C167.071 210.803 166.367 207.88 166.367 204.68C166.367 201.48 167.071 198.557 168.479 195.912C169.929 193.267 171.935 191.176 174.495 189.64C177.055 188.104 179.935 187.336 183.135 187.336C186.335 187.336 189.215 188.104 191.775 189.64C194.335 191.176 196.319 193.267 197.727 195.912C199.177 198.557 199.903 201.48 199.903 204.68C199.903 207.88 199.177 210.803 197.727 213.448C196.319 216.093 194.335 218.184 191.775 219.72C189.215 221.256 186.335 222.024 183.135 222.024ZM183.135 217.096C185.14 217.096 186.996 216.605 188.703 215.624C190.452 214.6 191.839 213.149 192.863 211.272C193.929 209.395 194.463 207.197 194.463 204.68C194.463 202.163 193.929 199.965 192.863 198.088C191.839 196.211 190.452 194.781 188.703 193.8C186.996 192.776 185.14 192.264 183.135 192.264C181.129 192.264 179.252 192.776 177.503 193.8C175.753 194.781 174.345 196.211 173.279 198.088C172.255 199.965 171.743 202.163 171.743 204.68C171.743 207.197 172.255 209.395 173.279 211.272C174.345 213.149 175.753 214.6 177.503 215.624C179.252 216.605 181.129 217.096 183.135 217.096ZM205.595 188.36H210.779V193.544H211.035C211.803 191.624 213.104 190.131 214.939 189.064C216.773 187.997 218.779 187.464 220.955 187.464C221.893 187.464 222.683 187.528 223.323 187.656V193.224C222.597 193.053 221.616 192.968 220.378 192.968C217.605 192.968 215.344 193.885 213.595 195.72C211.888 197.555 211.035 199.944 211.035 202.888V221H205.595V188.36ZM242.395 221.512C241.072 221.512 239.835 221.299 238.683 220.872C237.573 220.445 236.635 219.869 235.867 219.144C235.013 218.333 234.373 217.395 233.947 216.328C233.52 215.261 233.307 213.96 233.307 212.424V193.288H227.611V188.36H233.307V179.144H238.747V188.36H246.683V193.288H238.747V211.08C238.747 212.872 239.088 214.195 239.771 215.048C240.581 215.987 241.755 216.456 243.291 216.456C244.528 216.456 245.723 216.093 246.875 215.368V220.68C246.235 220.979 245.573 221.192 244.891 221.32C244.251 221.448 243.419 221.512 242.395 221.512ZM263.579 218.952L250.075 188.36H255.963L266.203 212.616H266.331L276.187 188.36H282.075L261.915 234.824H256.283L263.579 218.952Z" fill="white"/>
<path d="M287.032 175.176H292.472V221H287.032V175.176ZM303.732 182.344C302.665 182.344 301.748 181.96 300.98 181.192C300.212 180.424 299.828 179.507 299.828 178.44C299.828 177.373 300.212 176.477 300.98 175.752C301.748 174.984 302.665 174.6 303.732 174.6C304.799 174.6 305.716 174.984 306.484 175.752C307.252 176.477 307.636 177.373 307.636 178.44C307.636 179.507 307.252 180.424 306.484 181.192C305.759 181.96 304.841 182.344 303.732 182.344ZM301.044 188.36H306.42V221H301.044V188.36ZM314.97 188.36H320.154V193.16H320.41C321.306 191.539 322.735 190.173 324.698 189.064C326.66 187.912 328.751 187.336 330.97 187.336C334.895 187.336 337.882 188.488 339.93 190.792C342.02 193.053 343.066 196.147 343.066 200.072V221H337.626V200.904C337.626 197.875 336.9 195.677 335.45 194.312C333.999 192.947 332.015 192.264 329.498 192.264C327.748 192.264 326.17 192.755 324.762 193.736C323.396 194.717 322.33 196.019 321.562 197.64C320.794 199.219 320.41 200.883 320.41 202.632V221H314.97V188.36ZM365.373 222.024C362.258 222.024 359.463 221.277 356.989 219.784C354.514 218.291 352.573 216.243 351.165 213.64C349.799 210.995 349.117 208.029 349.117 204.744C349.117 201.587 349.757 198.685 351.036 196.04C352.359 193.395 354.215 191.283 356.605 189.704C358.994 188.125 361.767 187.336 364.925 187.336C368.125 187.336 370.898 188.061 373.245 189.512C375.591 190.92 377.383 192.883 378.621 195.4C379.901 197.917 380.541 200.797 380.541 204.04C380.541 204.68 380.477 205.235 380.349 205.704H354.557C354.685 208.179 355.282 210.269 356.349 211.976C357.415 213.683 358.759 214.963 360.381 215.816C362.045 216.669 363.773 217.096 365.565 217.096C369.746 217.096 372.967 215.133 375.229 211.208L379.837 213.448C378.429 216.093 376.509 218.184 374.077 219.72C371.687 221.256 368.786 222.024 365.373 222.024ZM374.781 201.224C374.695 199.859 374.311 198.493 373.629 197.128C372.946 195.763 371.858 194.611 370.365 193.672C368.914 192.733 367.079 192.264 364.861 192.264C362.301 192.264 360.125 193.096 358.333 194.76C356.583 196.381 355.431 198.536 354.877 201.224H374.781ZM398.612 222.024C395.113 222.024 392.19 221.213 389.844 219.592C387.497 217.928 385.833 215.816 384.852 213.256L389.716 211.08C390.526 213.043 391.721 214.557 393.3 215.624C394.921 216.691 396.692 217.224 398.612 217.224C400.66 217.224 402.409 216.819 403.86 216.008C405.31 215.155 406.036 213.96 406.036 212.424C406.036 211.059 405.46 209.971 404.308 209.16C403.156 208.307 401.342 207.581 398.868 206.984L394.9 205.96C392.297 205.32 390.164 204.232 388.5 202.696C386.836 201.16 386.004 199.176 386.004 196.744C386.004 194.867 386.558 193.224 387.668 191.816C388.82 190.365 390.334 189.256 392.212 188.488C394.089 187.72 396.116 187.336 398.292 187.336C401.15 187.336 403.689 187.955 405.908 189.192C408.169 190.429 409.769 192.157 410.708 194.376L405.972 196.552C404.521 193.651 401.94 192.2 398.228 192.2C396.436 192.2 394.857 192.627 393.492 193.48C392.169 194.291 391.508 195.336 391.508 196.616C391.508 197.811 391.977 198.792 392.916 199.56C393.854 200.285 395.262 200.883 397.14 201.352L401.876 202.568C405.076 203.379 407.486 204.595 409.108 206.216C410.729 207.795 411.54 209.736 411.54 212.04C411.54 214.045 410.964 215.816 409.812 217.352C408.66 218.845 407.102 219.997 405.14 220.808C403.177 221.619 401.001 222.024 398.612 222.024Z" fill="white"/>
</svg>
